<?xml version="1.0" encoding="utf-8"?>
<!-- Generator: Adobe Illustrator 27.5.0, SVG Export Plug-In . SVG Version: 6.00 Build 0)  -->
<svg version="1.1" xmlns="http://www.w3.org/2000/svg" xmlns:xlink="http://www.w3.org/1999/xlink" x="0px" y="0px"
	 viewBox="0 0 500 500" style="enable-background:new 0 0 500 500;" xml:space="preserve">
<g id="Background_Complete">
	<g>
		<rect y="382.398" style="fill:#EBEBEB;" width="500" height="0.25"/>
		<rect x="416.779" y="398.494" style="fill:#EBEBEB;" width="33.122" height="0.25"/>
		<rect x="322.527" y="401.208" style="fill:#EBEBEB;" width="8.693" height="0.25"/>
		<rect x="396.586" y="389.208" style="fill:#EBEBEB;" width="19.192" height="0.25"/>
		<rect x="52.459" y="390.888" style="fill:#EBEBEB;" width="43.193" height="0.25"/>
		<rect x="104.556" y="390.888" style="fill:#EBEBEB;" width="6.333" height="0.25"/>
		<rect x="131.471" y="395.111" style="fill:#EBEBEB;" width="93.676" height="0.25"/>
		<path style="fill:#EBEBEB;" d="M237.014,337.8H43.915c-3.147,0-5.708-2.561-5.708-5.708V60.66c0-3.147,2.561-5.708,5.708-5.708
			h193.099c3.146,0,5.707,2.561,5.707,5.708v271.432C242.721,335.239,240.16,337.8,237.014,337.8z M43.915,55.203
			c-3.01,0-5.458,2.448-5.458,5.458v271.432c0,3.01,2.448,5.458,5.458,5.458h193.099c3.009,0,5.457-2.448,5.457-5.458V60.66
			c0-3.009-2.448-5.458-5.457-5.458H43.915z"/>
		<path style="fill:#EBEBEB;" d="M453.31,337.8H260.212c-3.147,0-5.707-2.561-5.707-5.708V60.66c0-3.147,2.561-5.708,5.707-5.708
			H453.31c3.148,0,5.708,2.561,5.708,5.708v271.432C459.019,335.239,456.458,337.8,453.31,337.8z M260.212,55.203
			c-3.009,0-5.457,2.448-5.457,5.458v271.432c0,3.01,2.448,5.458,5.457,5.458H453.31c3.01,0,5.458-2.448,5.458-5.458V60.66
			c0-3.009-2.448-5.458-5.458-5.458H260.212z"/>
	</g>
	<g>
		<g>
			<rect x="61.124" y="299.433" style="fill:#EBEBEB;" width="36.896" height="82.965"/>
			<rect x="115.872" y="259.409" style="fill:#EBEBEB;" width="36.896" height="122.989"/>
			<rect x="170.619" y="229.391" style="fill:#EBEBEB;" width="36.896" height="153.007"/>
			<rect x="225.367" y="299.433" style="fill:#EBEBEB;" width="36.896" height="82.965"/>
			<rect x="280.115" y="269.415" style="fill:#EBEBEB;" width="36.896" height="112.983"/>
			<rect x="334.862" y="219.385" style="fill:#EBEBEB;" width="36.896" height="163.013"/>
			<rect x="389.61" y="129.331" style="fill:#EBEBEB;" width="36.896" height="253.067"/>
		</g>
		<g>
			<polyline style="fill:none;stroke:#E0E0E0;stroke-width:5;stroke-miterlimit:10;" points="79.572,274.251 133.495,233.915 
				189.068,204.497 243.815,274.251 297.472,243.354 353.853,194.253 410.766,102.832 			"/>
			<path style="fill:#FAFAFA;stroke:#E0E0E0;stroke-width:5;stroke-miterlimit:10;" d="M86.169,274.251
				c0,3.643-2.953,6.597-6.597,6.597c-3.643,0-6.597-2.953-6.597-6.597c0-3.643,2.953-6.597,6.597-6.597
				C83.216,267.655,86.169,270.608,86.169,274.251z"/>
			<circle style="fill:#FAFAFA;stroke:#E0E0E0;stroke-width:5;stroke-miterlimit:10;" cx="133.495" cy="233.912" r="6.597"/>
			<path style="fill:#FAFAFA;stroke:#E0E0E0;stroke-width:5;stroke-miterlimit:10;" d="M195.664,204.529
				c0,3.643-2.954,6.597-6.597,6.597c-3.643,0-6.597-2.954-6.597-6.597s2.953-6.597,6.597-6.597
				C192.711,197.932,195.664,200.885,195.664,204.529z"/>
			<path style="fill:#FAFAFA;stroke:#E0E0E0;stroke-width:5;stroke-miterlimit:10;" d="M250.412,273.091
				c0,3.643-2.953,6.597-6.597,6.597s-6.597-2.953-6.597-6.597s2.954-6.597,6.597-6.597S250.412,269.447,250.412,273.091z"/>
			<circle style="fill:#FAFAFA;stroke:#E0E0E0;stroke-width:5;stroke-miterlimit:10;" cx="298.563" cy="242.709" r="6.597"/>
			<circle style="fill:#FAFAFA;stroke:#E0E0E0;stroke-width:5;stroke-miterlimit:10;" cx="353.792" cy="193.575" r="6.597"/>
			<circle style="fill:#FAFAFA;stroke:#E0E0E0;stroke-width:5;stroke-miterlimit:10;" cx="409.579" cy="104.522" r="6.597"/>
		</g>
	</g>
</g>
<g id="Background_Simple" style="display:none;">
	<g style="display:inline;">
		<path style="fill:#407BFF;" d="M246.023,96.424c-76.884,34.592-7.09,96.244-51.482,129.82s-165.091-5.24-119.08,81.95
			c54.047,102.417,290.725,88.195,341.755-37.426C468.247,145.147,322.907,61.832,246.023,96.424z"/>
		<path style="opacity:0.9;fill:#FFFFFF;" d="M246.023,96.424c-76.884,34.592-7.09,96.244-51.482,129.82s-165.091-5.24-119.08,81.95
			c54.047,102.417,290.725,88.195,341.755-37.426C468.247,145.147,322.907,61.832,246.023,96.424z"/>
	</g>
</g>
<g id="Shadow_1_">
	<ellipse id="_x3C_Path_x3E__359_" style="fill:#F5F5F5;" cx="250" cy="416.238" rx="193.889" ry="11.323"/>
</g>
<g id="Plant">
	<g>
		<g>
			<path style="fill:none;stroke:#407BFF;stroke-width:0.9446;stroke-miterlimit:10;" d="M400.568,345.853c0,0-6.619-5.519-12.296,0
				c-5.677,5.519-6.772,39.711-6.772,39.711"/>
			<path style="fill:none;stroke:#407BFF;stroke-width:0.9446;stroke-miterlimit:10;" d="M381.031,392.166
				c0,0,3.902-40.126-10.79-56.989"/>
			<path style="fill:none;stroke:#407BFF;stroke-width:0.9446;stroke-miterlimit:10;" d="M382.429,387.937
				c0,0-3.005-45.68,8.014-55.815"/>
			<path style="fill:none;stroke:#407BFF;stroke-width:0.9446;stroke-miterlimit:10;" d="M381.031,387.937
				c0,0-0.256-30.185-8.445-34.878c-8.189-4.693-12.363,10.612-12.363,10.612"/>
			<path style="fill:none;stroke:#407BFF;stroke-width:0.9446;stroke-miterlimit:10;" d="M384.265,387.937
				c0,0-1.336-23.173,5.009-31.455c6.344-8.282,13.023,3.548,13.023,3.548"/>
			<path style="fill:none;stroke:#407BFF;stroke-width:0.9446;stroke-miterlimit:10;" d="M382.054,391.041
				c0,0,4.103-54.194-2.687-63.377"/>
		</g>
		<g>
			<path style="fill:#407BFF;" d="M365.574,357.457c0,0,4.083,1.505,2.869,5.059c-1.214,3.554-14.125,9.402-14.125,9.402
				s-5.407-4.956-0.441-13.017C358.842,350.841,365.464,354.914,365.574,357.457z"/>
			<path style="opacity:0.4;fill:#FFFFFF;enable-background:new    ;" d="M365.574,357.457c0,0,4.083,1.505,2.869,5.059
				c-1.214,3.554-14.125,9.402-14.125,9.402s-5.407-4.956-0.441-13.017C358.842,350.841,365.464,354.914,365.574,357.457z"/>
		</g>
		<g>
			<path style="fill:#407BFF;" d="M383.324,350.692c0,0-4.348-0.182-4.595,3.565c-0.247,3.747,9.419,14.114,9.419,14.114
				s6.898-2.494,5.417-11.844C392.083,347.176,384.404,348.387,383.324,350.692z"/>
			<path style="opacity:0.4;fill:#FFFFFF;enable-background:new    ;" d="M383.324,350.692c0,0-4.348-0.182-4.595,3.565
				c-0.247,3.747,9.419,14.114,9.419,14.114s6.898-2.494,5.417-11.844C392.083,347.176,384.404,348.387,383.324,350.692z"/>
		</g>
		<g>
			<path style="fill:#407BFF;" d="M387.005,332.755c0,0-2.899-0.311-2.665-2.077c0.234-1.766,11.269-6.31,17.779,1.038
				c0,0-4.169,7.161-10.195,7.255C385.897,339.065,387.005,332.755,387.005,332.755z"/>
			<path style="opacity:0.4;fill:#FFFFFF;enable-background:new    ;" d="M387.005,332.755c0,0-2.899-0.311-2.665-2.077
				c0.234-1.766,11.269-6.31,17.779,1.038c0,0-4.169,7.161-10.195,7.255C385.897,339.065,387.005,332.755,387.005,332.755z"/>
		</g>
		<g>
			<path style="fill:#407BFF;" d="M381.603,328.467c0,0,2.625,1.269,3.361-0.353c0.736-1.622-6.226-11.315-15.638-8.522
				c0,0-0.249,8.283,4.816,11.549C379.206,334.408,381.603,328.467,381.603,328.467z"/>
			<path style="opacity:0.4;fill:#FFFFFF;enable-background:new    ;" d="M381.603,328.467c0,0,2.625,1.269,3.361-0.353
				c0.736-1.622-6.226-11.315-15.638-8.522c0,0-0.249,8.283,4.816,11.549C379.206,334.408,381.603,328.467,381.603,328.467z"/>
		</g>
		<g>
			<path style="fill:#407BFF;" d="M395.328,356.028c0,0-2.001-1.615,0.158-2.404c2.159-0.788,12.753-0.564,12.863,9.93
				c0,0-12.338,2.05-13.866-1.947C392.957,357.61,395.328,356.028,395.328,356.028z"/>
			<path style="opacity:0.4;fill:#FFFFFF;enable-background:new    ;" d="M395.328,356.028c0,0-2.001-1.615,0.158-2.404
				c2.159-0.788,12.753-0.564,12.863,9.93c0,0-12.338,2.05-13.866-1.947C392.957,357.61,395.328,356.028,395.328,356.028z"/>
		</g>
		<g>
			<path style="fill:#407BFF;" d="M370.168,332.492c0,0,2.001-1.615-0.158-2.404c-2.159-0.788-12.753-0.564-12.863,9.929
				c0,0,12.338,2.051,13.866-1.947C372.539,334.074,370.168,332.492,370.168,332.492z"/>
			<path style="opacity:0.4;fill:#FFFFFF;enable-background:new    ;" d="M370.168,332.492c0,0,2.001-1.615-0.158-2.404
				c-2.159-0.788-12.753-0.564-12.863,9.929c0,0,12.338,2.051,13.866-1.947C372.539,334.074,370.168,332.492,370.168,332.492z"/>
		</g>
		<g>
			<path style="fill:#407BFF;" d="M376.69,340.945c0,0,0.176-1.964-1.409-1.194c-1.585,0.77-7.108,6.728-1.383,12.382
				c0,0,7.706-5.707,6.317-8.679C378.826,340.481,376.69,340.945,376.69,340.945z"/>
			<path style="opacity:0.4;fill:#FFFFFF;enable-background:new    ;" d="M376.69,340.945c0,0,0.176-1.964-1.409-1.194
				c-1.585,0.77-7.108,6.728-1.383,12.382c0,0,7.706-5.707,6.317-8.679C378.826,340.481,376.69,340.945,376.69,340.945z"/>
		</g>
		<g>
			<path style="fill:#407BFF;" d="M397.116,343.744c0,0-1.196-1.567,0.556-1.761c1.751-0.194,9.601,1.901,7.773,9.736
				c0,0-9.563-0.719-9.972-3.974C395.062,344.49,397.116,343.744,397.116,343.744z"/>
			<path style="opacity:0.4;fill:#FFFFFF;enable-background:new    ;" d="M397.116,343.744c0,0-1.196-1.567,0.556-1.761
				c1.751-0.194,9.601,1.901,7.773,9.736c0,0-9.563-0.719-9.972-3.974C395.062,344.49,397.116,343.744,397.116,343.744z"/>
		</g>
		<polygon style="fill:#263238;" points="366.287,417.026 397.202,417.026 401.311,386.964 362.177,386.964 		"/>
		<polygon style="opacity:0.2;fill:#FFFFFF;enable-background:new    ;" points="366.287,417.026 397.202,417.026 401.311,386.964 
			362.177,386.964 		"/>
		<path style="fill:#263238;" d="M405.186,384.527v2.856c0,1.911-1.549,3.461-3.461,3.461h-40.349c-1.911,0-3.461-1.549-3.461-3.461
			v-2.856H405.186z"/>
	</g>
</g>
<g id="Arrow">
	<g>
		<path style="fill:#407BFF;" d="M402.027,167.18h-8.15c-0.55,19.72-7.04,124.58-82.06,183.42
			c-66.67,52.28-136.42,58.31-177.46,58.31c-7.19,0-13.49-0.18-18.75-0.34c-3.58-0.1-6.68-0.19-9.05-0.19v-40
			c2.96,0,6.33,0.1,10.23,0.21c33.56,0.98,103.39,3.04,170.35-49.47c59.33-46.53,65.96-134.43,66.7-151.94h-8.02l28.11-38.03
			L402.027,167.18z"/>
		<path style="opacity:0.2;enable-background:new    ;" d="M402.027,167.18h-8.15c-0.55,19.72-7.04,124.58-82.06,183.42
			c-66.67,52.28-136.42,58.31-177.46,58.31c-7.19,0-13.49-0.18-18.75-0.34c-3.58-0.1-6.68-0.19-9.05-0.19v-14.72
			c90.48-1.01,151.27-19.23,199.91-60.98c66.79-57.34,70.74-164.58,70.74-164.58l14.38-4l-17.66-34.95L402.027,167.18z"/>
		
			<line style="fill:none;stroke:#407BFF;stroke-width:3;stroke-linecap:round;stroke-linejoin:round;stroke-miterlimit:10;" x1="353.792" y1="168.102" x2="393.795" y2="168.102"/>
		
			<line style="opacity:0.4;fill:none;stroke:#FFFFFF;stroke-width:3;stroke-linecap:round;stroke-linejoin:round;stroke-miterlimit:10;" x1="353.792" y1="168.102" x2="393.795" y2="168.102"/>
	</g>
</g>
<g id="Speech_bubble">
	<g>
		<g>
			<path style="fill:#407BFF;" d="M136.507,137.571h-28.728c-4.886,0-8.846,3.96-8.846,8.846v25.002
				c0,4.885,3.961,8.846,8.846,8.846h8.388l-0.027,9.896l5.977-9.896h14.391c4.885,0,8.846-3.96,8.846-8.846v-25.002
				C145.353,141.532,141.392,137.571,136.507,137.571z"/>
			<path style="opacity:0.7;fill:#FFFFFF;" d="M136.507,137.571h-28.728c-4.886,0-8.846,3.96-8.846,8.846v25.002
				c0,4.885,3.961,8.846,8.846,8.846h8.388l-0.027,9.896l5.977-9.896h14.391c4.885,0,8.846-3.96,8.846-8.846v-25.002
				C145.353,141.532,141.392,137.571,136.507,137.571z"/>
		</g>
		<g>
			<g style="enable-background:new    ;">
				
					<ellipse transform="matrix(0.2298 -0.9732 0.9732 0.2298 -60.4822 241.1984)" style="fill:#407BFF;" cx="122.142" cy="158.81" rx="14.258" ry="14.258"/>
			</g>
			<g>
				<path style="fill:#FFFFFF;" d="M120.646,165.179c-0.385,0-0.75-0.169-0.999-0.463l-5.594-6.591
					c-0.468-0.552-0.4-1.378,0.151-1.847c0.551-0.467,1.378-0.401,1.847,0.152l4.595,5.414l7.588-8.94
					c0.469-0.553,1.296-0.619,1.847-0.151c0.552,0.468,0.62,1.295,0.151,1.847l-8.587,10.118
					C121.396,165.01,121.031,165.179,120.646,165.179z"/>
			</g>
		</g>
	</g>
</g>
<g id="Character">
	<g>
		<g>
			<path style="fill:#E4897B;" d="M169.144,192.559l-0.821,1.711c0,0-4.025,3.553-2.352,5.895l3.258,1.679l4.344-2.395
				c0.67-0.369,1.138-1.019,1.276-1.771l0.581-3.163c0.241-1.31-0.568-2.584-1.855-2.925l-1.483-0.392
				C170.911,190.886,169.673,191.457,169.144,192.559z"/>
			<polygon style="fill:#407BFF;" points="164.474,201.757 165.389,199.181 169.922,201.506 168.859,203.869 			"/>
			<polygon style="opacity:0.7;fill:#FFFFFF;" points="164.474,201.757 165.389,199.181 169.922,201.506 168.859,203.869 			"/>
			<path style="fill:#263238;" d="M169.537,203.21c-1.69,4.3-3.55,8.48-5.61,12.61c-1.04,2.06-2.1,4.13-3.29,6.17
				c-0.29,0.51-0.6,1.02-0.92,1.54c-0.31,0.51-0.62,1.03-0.99,1.55l-0.53,0.79l-0.62,0.82l-0.31,0.41c-0.14,0.17-0.33,0.36-0.5,0.54
				c-0.35,0.39-0.67,0.63-1.02,0.92c-1.33,1.06-2.56,1.71-3.77,2.29c-1.21,0.57-2.39,1.04-3.56,1.45c-2.34,0.83-4.66,1.46-6.96,2.01
				c-1.8,0.43-3.58,0.8-5.37,1.13c-2,0.37-4.01,0.68-6.05,0.93c-0.83,0.11-1.66,0.21-2.5,0.3l-1.02-9.17
				c4.28-0.57,8.72-1.27,12.96-2.13c2.12-0.42,4.21-0.92,6.19-1.48c0.99-0.29,1.94-0.61,2.81-0.96c0.86-0.33,1.68-0.73,2.15-1.05
				c0.1-0.07,0.24-0.15,0.27-0.18c0.03-0.03,0.05-0.03,0.1-0.07l0.22-0.25l0.45-0.51l0.47-0.59c0.32-0.39,0.65-0.8,0.97-1.23
				c0.32-0.42,0.64-0.85,0.96-1.3c1.27-1.78,2.55-3.61,3.8-5.47c2.52-3.71,6.76-11.47,6.76-11.47L169.537,203.21z"/>
			<path style="opacity:0.3;" d="M136.087,235.44c-2,0.37-4.01,0.68-6.05,0.93l-1.33-5.19
				C128.707,231.18,132.417,231.96,136.087,235.44z"/>
		</g>
		<g>
			<path style="fill:#407BFF;" d="M96.186,244.637c3.858,5.593,6.642,10.753,9.483,16.552c2.082,4.255,3.892,8.398,5.447,12.198
				c3.655,8.922,5.909,15.943,6.996,18.203c4.235-1.92,20.681-9.382,29.987-13.61c-7.873-36.196-22.275-50.218-22.275-50.218
				s-3.642,0.85-7.628,2.399c-0.523,0.2-1.048,0.418-1.578,0.648c-3.41,1.475-8.667,4.498-12.207,6.656
				c-0.739,0.452-1.477,0.929-2.188,1.405C98.629,241.284,96.186,244.637,96.186,244.637z"/>
			<path style="opacity:0.7;fill:#FFFFFF;" d="M96.186,244.637c3.858,5.593,6.642,10.753,9.483,16.552
				c2.082,4.255,3.892,8.398,5.447,12.198c3.655,8.922,5.909,15.943,6.996,18.203c4.235-1.92,20.681-9.382,29.987-13.61
				c-7.873-36.196-22.275-50.218-22.275-50.218s-3.642,0.85-7.628,2.399c-0.523,0.2-1.048,0.418-1.578,0.648
				c-3.41,1.475-8.667,4.498-12.207,6.656c-0.739,0.452-1.477,0.929-2.188,1.405C98.629,241.284,96.186,244.637,96.186,244.637z"/>
		</g>
		<polygon style="fill:#E4897B;" points="97.347,411.398 103.117,413.327 109.222,400.514 103.453,398.585 		"/>
		<polygon style="fill:#E4897B;" points="200.303,413.287 206.097,411.434 203.451,397.49 197.656,399.342 		"/>
		<path style="fill:#263238;" d="M140.14,273.66c0,0,0.947,62.192-1.155,76.305c-2.102,14.113-30.256,57.512-30.256,57.512
			l-10.181-5.111c0,0,22.491-46.51,23.11-52.551c0.619-6.04-5.229-55.475-5.229-55.475L140.14,273.66z"/>
		<path style="opacity:0.1;fill:#FFFFFF;" d="M116.425,294.337c0,0,0.219,1.862,0.573,4.912c0.47,4.105,1.183,10.353,1.902,17.105
			c1.51,14.023,3.097,30.168,2.761,33.46c-0.617,6.04-23.113,52.554-23.113,52.554l10.182,5.104c0,0,28.149-43.395,30.25-57.506
			c2.108-14.119,1.157-76.303,1.157-76.303L116.425,294.337z"/>
		<g>
			<path style="fill:#263238;" d="M144.027,270.927c0,0,28.319,38.865,37.576,54.128c10.138,16.713,24.703,76.349,24.703,76.349
				l-9.599,5.657c0,0-16.706-54.031-27.814-69.963c-12.422-17.815-43.543-52.284-43.543-52.284L144.027,270.927z"/>
		</g>
		<g style="opacity:0.1;">
			<path style="fill:#FFFFFF;" d="M144.027,270.927c0,0,28.319,38.865,37.576,54.128c10.138,16.713,24.703,76.349,24.703,76.349
				l-9.599,5.657c0,0-16.706-54.031-27.814-69.963c-12.422-17.815-43.543-52.284-43.543-52.284L144.027,270.927z"/>
		</g>
		<path style="fill:#263238;" d="M206.695,409.978l-7.417,0.017c-0.249,0.001-0.465,0.174-0.521,0.417l-1.244,5.41
			c-0.129,0.561,0.308,1.091,0.882,1.08c2.386-0.046,4.129-0.19,7.135-0.197c1.849-0.004,7.424,0.175,9.977,0.169
			c2.497-0.006,2.907-2.532,1.863-2.758c-4.679-1.015-8.201-2.421-9.691-3.766C207.411,410.107,207.059,409.977,206.695,409.978z"/>
		<path style="fill:#407BFF;" d="M118.455,238.99c1.709,1.906,6.308,6.67,9.724,12.083c0.166,1.37,1.123,4.354,1.173,5.782
			c-1.209-0.889-3.55-2.812-4.849-3.657c-2.816-5.421-5.21-11.134-7.217-13.638L118.455,238.99z"/>
		<polygon style="fill:#407BFF;" points="119.173,240.817 118.976,237.563 116.577,237.578 115.476,239.173 		"/>
		<path style="fill:#E4897B;" d="M116.487,237.62c-4.53,2.14-8.41,1.69-11.44,0.47c1.04-2.5-0.15-6.22-1.83-9.57
			c-0.99-2-2.16-3.88-3.12-5.27l10.65,3.18c0.35,2.08,0.9,4.02,2.17,5.11c0.87,0.77,2.1,1.13,3.83,0.83
			C118.117,233.38,119.957,235.98,116.487,237.62z"/>
		<g>
			<path style="fill:#FFFFFF;" d="M116.577,237.578c0,0-0.567,2.285-1.371,4.654c-2.844-0.173-9.693-0.98-10.859-4.092
				c-0.103-1.015,0.818-2.08,0.818-2.08S110.024,237.732,116.577,237.578z"/>
		</g>
		<g>
			<path style="fill:#FFFFFF;" d="M116.577,237.578c0,0,2.464,0.641,4.495,1.961c1.124-1.906-2.988-6.997-3.895-7.332
				c-2.409-0.744-3.982-0.413-3.982-0.413S116.161,234.038,116.577,237.578z"/>
		</g>
		<path style="opacity:0.2;" d="M112.917,231.54c-3.73-0.12-7.03-1.27-9.7-3.02c-0.99-2-2.16-3.88-3.12-5.27l10.65,3.18
			C111.097,228.51,111.647,230.45,112.917,231.54z"/>
		<path style="fill:#263238;" d="M158.457,288.74l-10.36,2.85l-9.16-10.81l-0.4,14.64l-23.06,7.12c0,0,0.57-9.27-1.55-18.35
			c-0.05-0.21-0.1-0.42-0.17-0.65c-1.14-4.18-4.71-11.86-8.43-19.29c-4.99-9.99-10.24-19.53-10.24-19.53s3.21-3.83,8.08-6.47
			c0,0,13.4,8.79,26.18,18.61c0,0-3.01-21.42-13.11-25.89c0,0,5.19-2.89,10.3-3.51c0,0,14.99,16.7,19.94,43.7L158.457,288.74z"/>
		<path style="opacity:0.1;fill:#FFFFFF;" d="M112.936,246.87l-0.808,8.131c0,0,14.582,0.724,25.153,10.7l-5.51-6.253l0.788-16.811
			l-6.812-2.288l2.347-6.22c0,0-8.043-4.016-11.854-3.157c10.094,4.468,13.113,25.881,13.113,25.881
			c-12.784-9.813-26.187-18.609-26.187-18.609s-1.965,4.892-0.45,11.515L112.936,246.87z"/>
		<g>
			<path style="fill:#263238;" d="M112.359,208.36c1.579,1.857,3.067,6.414-0.529,6.247
				C108.234,214.44,109.646,205.168,112.359,208.36z"/>
			<path style="fill:#E4897B;" d="M98.147,217.772c1.996,5.644,2.877,9.052,6.62,11.143c5.63,3.145,11.964-1.589,11.693-7.734
				c-0.243-5.531-3.466-13.832-9.739-14.453C100.541,206.116,96.152,212.128,98.147,217.772z"/>
			<path style="fill:#263238;" d="M100.743,213.149l-2.597-6.151c0,0-6.752,2.278-5.046,5.506c-2.867,3.329,1.229,8.247,7.268,8.956
				c1.767-3.264-0.711-8.279-0.711-8.279C99.999,213.187,100.366,213.172,100.743,213.149z"/>
			<path style="fill:#E4897B;" d="M97.299,223.195c0.882,1.348,2.306,2.155,3.607,2.395c1.958,0.361,2.774-1.444,2.094-3.207
				c-0.612-1.587-2.369-3.688-4.268-3.251C96.861,219.564,96.29,221.654,97.299,223.195z"/>
			<path style="fill:#263238;" d="M107.315,216.796c0.134,0.468,0.49,0.774,0.796,0.684c0.306-0.091,0.445-0.544,0.311-1.012
				c-0.134-0.468-0.49-0.774-0.795-0.683C107.32,215.876,107.181,216.329,107.315,216.796z"/>
			<path style="fill:#263238;" d="M112.598,215.23c0.134,0.468,0.49,0.774,0.796,0.683c0.306-0.091,0.445-0.543,0.311-1.012
				c-0.134-0.468-0.49-0.774-0.795-0.683C112.604,214.309,112.465,214.761,112.598,215.23z"/>
			<path style="fill:#DE5753;" d="M110.985,215.961c0,0,1.833,2.277,3.374,3.188c-0.607,0.973-2.114,1.036-2.114,1.036
				L110.985,215.961z"/>
			<path style="fill:#263238;" d="M110.204,222.813c0.201-0.015,0.411-0.044,0.629-0.09c0.077-0.016,0.128-0.092,0.112-0.17
				c-0.015-0.078-0.093-0.127-0.168-0.111c-2.096,0.439-3.365-0.816-3.378-0.829c-0.055-0.056-0.146-0.055-0.202,0
				c-0.057,0.056-0.057,0.147-0.002,0.203C107.246,221.868,108.341,222.951,110.204,222.813z"/>
			<path style="fill:#263238;" d="M104.699,214.85c0.087,0.048,0.198,0.049,0.29-0.007c1.094-0.668,2.054-0.233,2.064-0.228
				c0.143,0.067,0.315,0.006,0.383-0.136c0.068-0.142,0.007-0.312-0.135-0.379c-0.05-0.024-1.253-0.57-2.61,0.259
				c-0.135,0.083-0.178,0.258-0.096,0.392C104.621,214.794,104.657,214.827,104.699,214.85z"/>
			<path style="fill:#263238;" d="M114.473,211.526c0.025-0.048,0.036-0.104,0.029-0.163c-0.018-0.158-0.16-0.272-0.316-0.255
				c-1.569,0.172-2.159,1.348-2.192,1.397c-0.07,0.141-0.013,0.314,0.128,0.386c0.14,0.071,0.31,0.016,0.381-0.124
				c0.023-0.05,0.489-0.95,1.748-1.088C114.35,211.669,114.431,211.608,114.473,211.526z"/>
			<path style="fill:#263238;" d="M98.802,216.661c0,0,3.243-3.027,4.081-6.02c0,0,3.889-0.563,5.209,0.559
				c0,0,0.785-1.531-0.684-2.47c0,0,2.854-0.554,4.13,1.014c0,0,1.119-1.001,0.242-2.861c0,0,1.354-0.053,2.526,1.692
				c0,0,0.352-7.254-9.94-4.947c0,0,0.62-0.637,2.078-1.328c0,0-7.807,0.125-12.058,4.825
				C90.135,211.828,93.1,216.152,98.802,216.661z"/>
		</g>
		<path style="fill:#263238;" d="M104.634,409.978l-7.417,0.017c-0.249,0.001-0.465,0.174-0.521,0.417l-1.244,5.41
			c-0.129,0.561,0.308,1.091,0.882,1.08c2.386-0.046,4.129-0.19,7.135-0.197c1.849-0.004,7.424,0.175,9.978,0.169
			c2.497-0.006,2.907-2.532,1.863-2.758c-4.679-1.015-8.201-2.421-9.691-3.766C105.35,410.107,104.998,409.977,104.634,409.978z"/>
		<path style="fill:none;stroke:#407BFF;stroke-width:3;stroke-linecap:round;stroke-linejoin:round;stroke-miterlimit:10;" d="
			M372.342,167.176l-86.745-62.144c-4.675-3.349-10.281-5.15-16.031-5.15h-40.695c-4.684,0-9.269,1.347-13.209,3.879l0,0
			c-3.968,2.551-7.113,6.196-9.054,10.496l-66.564,147.421c0,0-11.748,40.947-8.245,89.486c1.599,22.15-2.357,68.577-49.039,65.737"
			/>
		
			<path style="opacity:0.4;fill:none;stroke:#FFFFFF;stroke-width:3;stroke-linecap:round;stroke-linejoin:round;stroke-miterlimit:10;" d="
			M372.342,167.176l-86.745-62.144c-4.675-3.349-10.281-5.15-16.031-5.15h-40.695c-4.684,0-9.269,1.347-13.209,3.879l0,0
			c-3.968,2.551-7.113,6.196-9.054,10.496l-66.564,147.421c0,0-11.748,40.947-8.245,89.486c1.599,22.15-2.357,68.577-49.039,65.737"
			/>
		<path style="opacity:0.3;" d="M137.867,261.68c0,0-12.85,16.15-24.11,21.86c-1.14-4.18-4.71-11.86-8.43-19.29
			c1.51-4.23,2.96-7.39,2.96-7.39s3.4,2.8,6.07,6.62c0,0,9.34-0.39,21.1-4.41L137.867,261.68z"/>
		<g>
			<path style="fill:#E4897B;" d="M139.356,257.546c0,0-5.446-1.034-5.861,1.794l1.202,3.428l5.344,1.353
				c0.432,0.109,0.888,0.065,1.291-0.124l2.339-1.1c0.607-0.285,1.021-0.866,1.094-1.533l0.257-2.374
				c0.139-1.286-1.005-2.341-2.276-2.096L139.356,257.546z"/>
			<polygon style="fill:#407BFF;" points="134.521,264.29 136.052,263.507 133.184,259.068 131.652,260.106 			"/>
			<polygon style="opacity:0.7;fill:#FFFFFF;" points="134.521,264.29 136.052,263.507 133.184,259.068 131.652,260.106 			"/>
			<path style="fill:#263238;" d="M95.082,244.721c-1.642,2.99,8.155,28.943,12.03,32.066c4.814,3.88,28.924-11.788,28.924-11.788
				l-4.266-5.55c0,0-19.017,6.818-19.806,6.253c-0.79-0.565-4.096-10.014-4.096-10.014s-3.326-5.12-6.864-7.765
				C97.466,245.277,95.082,244.721,95.082,244.721z"/>
		</g>
		<g>
			<g>
				<g>
					<path style="fill:#263238;" d="M227.435,99.251c-11.2,0-20.28,9.08-20.28,20.28c0,11.201,9.08,20.281,20.28,20.281
						c11.201,0,20.281-9.08,20.281-20.281C247.716,108.33,238.636,99.251,227.435,99.251z M215.441,123.091
						c-1.966,0-3.56-1.594-3.56-3.56c0-1.966,1.594-3.56,3.56-3.56c1.966,0,3.56,1.594,3.56,3.56
						C219.001,121.497,217.407,123.091,215.441,123.091z M227.435,135.086c-1.966,0-3.56-1.594-3.56-3.56s1.594-3.56,3.56-3.56
						c1.966,0,3.56,1.594,3.56,3.56S229.402,135.086,227.435,135.086z M227.435,111.096c-1.966,0-3.56-1.594-3.56-3.56
						s1.594-3.56,3.56-3.56c1.966,0,3.56,1.594,3.56,3.56S229.402,111.096,227.435,111.096z M239.43,123.091
						c-1.966,0-3.56-1.594-3.56-3.56c0-1.966,1.594-3.56,3.56-3.56c1.966,0,3.56,1.594,3.56,3.56
						C242.99,121.497,241.397,123.091,239.43,123.091z"/>
					<path style="opacity:0.4;fill:#FFFFFF;" d="M227.435,99.251c-11.2,0-20.28,9.08-20.28,20.28c0,11.201,9.08,20.281,20.28,20.281
						c11.201,0,20.281-9.08,20.281-20.281C247.716,108.33,238.636,99.251,227.435,99.251z M215.441,123.091
						c-1.966,0-3.56-1.594-3.56-3.56c0-1.966,1.594-3.56,3.56-3.56c1.966,0,3.56,1.594,3.56,3.56
						C219.001,121.497,217.407,123.091,215.441,123.091z M227.435,135.086c-1.966,0-3.56-1.594-3.56-3.56s1.594-3.56,3.56-3.56
						c1.966,0,3.56,1.594,3.56,3.56S229.402,135.086,227.435,135.086z M227.435,111.096c-1.966,0-3.56-1.594-3.56-3.56
						s1.594-3.56,3.56-3.56c1.966,0,3.56,1.594,3.56,3.56S229.402,111.096,227.435,111.096z M239.43,123.091
						c-1.966,0-3.56-1.594-3.56-3.56c0-1.966,1.594-3.56,3.56-3.56c1.966,0,3.56,1.594,3.56,3.56
						C242.99,121.497,241.397,123.091,239.43,123.091z"/>
					<circle style="opacity:0.2;" cx="227.435" cy="119.531" r="6.707"/>
					<g style="opacity:0.2;">
						<path d="M227.436,138.395c-10.402,0-18.864-8.462-18.864-18.863c0-10.402,8.462-18.864,18.864-18.864
							c10.401,0,18.863,8.462,18.863,18.864C246.299,129.932,237.837,138.395,227.436,138.395z M227.436,101.884
							c-9.731,0-17.647,7.916-17.647,17.647c0,9.73,7.916,17.647,17.647,17.647c9.73,0,17.647-7.916,17.647-17.647
							C245.083,109.8,237.166,101.884,227.436,101.884z"/>
					</g>
					<circle style="fill:#263238;" cx="227.435" cy="119.531" r="5.576"/>
				</g>
				<g>
					<path style="fill:#263238;" d="M269.694,99.251c-11.201,0-20.281,9.08-20.281,20.28s9.08,20.28,20.281,20.28
						s20.28-9.08,20.28-20.28S280.894,99.251,269.694,99.251z M257.699,123.091c-1.966,0-3.56-1.594-3.56-3.56s1.594-3.56,3.56-3.56
						s3.56,1.594,3.56,3.56S259.665,123.091,257.699,123.091z M269.694,135.086c-1.966,0-3.56-1.594-3.56-3.56s1.594-3.56,3.56-3.56
						s3.56,1.594,3.56,3.56S271.66,135.086,269.694,135.086z M269.694,111.096c-1.966,0-3.56-1.594-3.56-3.56
						c0-1.966,1.594-3.56,3.56-3.56s3.56,1.594,3.56,3.56C273.254,109.502,271.66,111.096,269.694,111.096z M281.689,123.091
						c-1.966,0-3.56-1.594-3.56-3.56s1.594-3.56,3.56-3.56c1.966,0,3.56,1.594,3.56,3.56S283.655,123.091,281.689,123.091z"/>
					<path style="opacity:0.4;fill:#FFFFFF;" d="M269.694,99.251c-11.201,0-20.281,9.08-20.281,20.28s9.08,20.28,20.281,20.28
						s20.28-9.08,20.28-20.28S280.894,99.251,269.694,99.251z M257.699,123.091c-1.966,0-3.56-1.594-3.56-3.56s1.594-3.56,3.56-3.56
						s3.56,1.594,3.56,3.56S259.665,123.091,257.699,123.091z M269.694,135.086c-1.966,0-3.56-1.594-3.56-3.56s1.594-3.56,3.56-3.56
						s3.56,1.594,3.56,3.56S271.66,135.086,269.694,135.086z M269.694,111.096c-1.966,0-3.56-1.594-3.56-3.56
						c0-1.966,1.594-3.56,3.56-3.56s3.56,1.594,3.56,3.56C273.254,109.502,271.66,111.096,269.694,111.096z M281.689,123.091
						c-1.966,0-3.56-1.594-3.56-3.56s1.594-3.56,3.56-3.56c1.966,0,3.56,1.594,3.56,3.56S283.655,123.091,281.689,123.091z"/>
					<path style="opacity:0.2;" d="M276.401,119.531c0,3.704-3.003,6.707-6.707,6.707c-3.704,0-6.707-3.003-6.707-6.707
						c0-3.704,3.003-6.707,6.707-6.707C273.398,112.824,276.401,115.827,276.401,119.531z"/>
					<g style="opacity:0.2;">
						<path d="M269.694,138.395c-10.402,0-18.864-8.462-18.864-18.863c0-10.402,8.462-18.864,18.864-18.864
							c10.401,0,18.863,8.462,18.863,18.864C288.557,129.932,280.095,138.395,269.694,138.395z M269.694,101.884
							c-9.731,0-17.647,7.916-17.647,17.647c0,9.73,7.916,17.647,17.647,17.647c9.73,0,17.647-7.917,17.647-17.647
							C287.341,109.8,279.425,101.884,269.694,101.884z"/>
					</g>
					<circle style="fill:#263238;" cx="269.694" cy="119.531" r="5.576"/>
				</g>
			</g>
			<g>
				<path style="fill:#263238;" d="M269.657,109.221L269.657,109.221c-4.443,0-8.239-3.201-8.989-7.58l-2.542-14.838h-19.121
					l-2.542,14.838c-0.75,4.379-4.547,7.58-8.989,7.58l0,0c-5.591,0-10.386,4.374-10.489,9.964
					c-0.104,5.695,4.481,10.344,10.152,10.344h42.857c5.671,0,10.256-4.649,10.152-10.344
					C280.043,113.595,275.247,109.221,269.657,109.221z"/>
				<path style="opacity:0.2;fill:#FFFFFF;" d="M269.657,109.221L269.657,109.221c-4.443,0-8.239-3.201-8.989-7.58l-2.542-14.838
					h-19.121l-2.542,14.838c-0.75,4.379-4.547,7.58-8.989,7.58l0,0c-5.591,0-10.386,4.374-10.489,9.964
					c-0.104,5.695,4.481,10.344,10.152,10.344h42.857c5.671,0,10.256-4.649,10.152-10.344
					C280.043,113.595,275.247,109.221,269.657,109.221z"/>
				<circle style="opacity:0.4;fill:#FFFFFF;" cx="227.435" cy="119.531" r="5.576"/>
				<circle style="opacity:0.4;fill:#FFFFFF;" cx="269.694" cy="119.531" r="5.576"/>
				<path style="fill:#263238;" d="M262.404,92.047h-27.678c-0.947,0-1.714-0.768-1.714-1.714v-4.979h31.106v4.979
					C264.118,91.279,263.35,92.047,262.404,92.047z"/>
				<path style="opacity:0.4;fill:#FFFFFF;" d="M262.404,92.047h-27.678c-0.947,0-1.714-0.768-1.714-1.714v-4.979h31.106v4.979
					C264.118,91.279,263.35,92.047,262.404,92.047z"/>
			</g>
		</g>
	</g>
</g>
</svg>
